<svg width="112" height="112" viewBox="0 0 112 112" fill="none" xmlns="http://www.w3.org/2000/svg">
<path d="M6.5 55.983L56 6.48297L105.5 56.017L56 105.517L6.5 55.983Z" fill="#103228"/>
<path d="M23.4714 72.9544L72.9714 23.4544L88.5286 39.0115L39.0286 88.5115L23.4714 72.9544Z" fill="#103228"/>
<path d="M40.4429 89.9258L89.9429 40.4258L105.5 55.983L56 105.483L40.4429 89.9258Z" fill="#103228"/>
<mask id="path-2-outside-1_914_118" maskUnits="userSpaceOnUse" x="19" y="19" width="74" height="74" fill="black">
<rect fill="white" x="19" y="19" width="74" height="74"/>
<path d="M91 91H21V71C29.2843 71 36 64.2843 36 56C36 47.7157 29.2843 41 21 41V21H91V91Z"/>
</mask>
<path d="M91 91H21V71C29.2843 71 36 64.2843 36 56C36 47.7157 29.2843 41 21 41V21H91V91Z" fill="#A8CD89"/>
<path d="M91 91V93H93V91H91ZM21 91H19V93H21V91ZM21 71V69H19V71H21ZM21 41H19V43H21V41ZM21 21V19H19V21H21ZM91 21H93V19H91V21ZM91 91V89H21V91V93H91V91ZM21 91H23V71H21H19V91H21ZM21 71V73C30.3888 73 38 65.3888 38 56H36H34C34 63.1797 28.1797 69 21 69V71ZM36 56H38C38 46.6112 30.3888 39 21 39V41V43C28.1797 43 34 48.8203 34 56H36ZM21 41H23V21H21H19V41H21ZM21 21V23H91V21V19H21V21ZM91 21H89V91H91H93V21H91Z" fill="white" mask="url(#path-2-outside-1_914_118)"/>
<rect x="59" y="69" width="29" height="15" fill="#103228"/>
<path d="M60.8473 38.512V44.848H54.0793V64H46.0873V44.848H39.3913V38.512H60.8473ZM73.6348 38.512C76.2988 38.512 78.6268 39.052 80.6188 40.132C82.6348 41.212 84.1828 42.712 85.2628 44.632C86.3428 46.552 86.8828 48.736 86.8828 51.184C86.8828 53.608 86.3428 55.792 85.2628 57.736C84.1828 59.68 82.6348 61.216 80.6188 62.344C78.6268 63.448 76.2988 64 73.6348 64H63.0148V38.512H73.6348ZM72.9148 56.872C74.7148 56.872 76.1428 56.38 77.1988 55.396C78.2548 54.412 78.7828 53.008 78.7828 51.184C78.7828 49.36 78.2548 47.956 77.1988 46.972C76.1428 45.988 74.7148 45.496 72.9148 45.496H71.0068V56.872H72.9148Z" fill="#103228"/>
</svg>
