<svg width="112" height="112" viewBox="0 0 112 112" xmlns="http://www.w3.org/2000/svg">
	<rect x="6.50253" y="56" width="70" height="22" transform="rotate(-45 6.50253 56)" fill="#103228" />
	<rect x="23.4731" y="72.9706" width="70" height="22" transform="rotate(-45 23.4731 72.9706)" fill="#103228" />
	<rect x="40.4436" y="89.9411" width="70" height="22" transform="rotate(-45 40.4436 89.9411)" fill="#103228" />
	<path fill="white"
		d="M49.5991 21.0805C41.5907 18.1841 34.1859 10.9999 34.1859 10.9999C34.1859 10.9999 21.4779 28.9203 25.0572 52.4408C26.5737 62.3995 38.1823 90.9599 73.6265 86.7399C75.8011 86.4735 81.0025 86.5 83.0765 84.4703C83.8924 84.3325 108.904 42.5311 49.5991 21.0805Z" />
	<path fill="#A8CD89" stroke="white" stroke-width="2" stroke-linejoin="round"
		d="M34.1859 10.9999C34.1859 10.9999 41.5907 18.1841 49.5991 21.0805C108.904 42.5311 83.8924 84.3325 83.0765 84.4703C83.0765 84.4703 79.7509 78.6791 75.2587 75.376C46.7527 54.4198 40.9589 30.2984 40.9589 30.2984C40.9589 30.2984 47.3556 59.3242 72.716 77.3849C78.3172 81.3718 82.1098 91.1884 83.7153 101C83.7153 101 79.7449 99.3958 78.0376 98.9613C77.3718 94.6166 75.9798 90.4564 73.6265 86.7399C38.1823 90.9599 26.5737 62.3995 25.0572 52.4408C21.4778 28.9203 34.1859 10.9999 34.1859 10.9999Z" />
</svg>
