<svg width="296" height="112" viewBox="0 0 296 112" fill="none" xmlns="http://www.w3.org/2000/svg">
	<path fill="#103228" d="M8 55.983L57.5 6.48297L107 56.017L57.5 105.517L8 55.983Z" />
	<path fill="#103228" d="M24.9714 72.9544L74.4714 23.4544L90.0286 39.0115L40.5286 88.5115L24.9714 72.9544Z" />
	<path fill="#103228" d="M41.9429 89.9258L91.4429 40.4258L107 55.983L57.5 105.483L41.9429 89.9258Z" />
	<mask id="path-2-outside-1_914_90" maskUnits="userSpaceOnUse" x="20.5" y="19" width="74" height="74" fill="black">
		<rect fill="#E6FFF2" x="20.5" y="19" width="74" height="74" />
		<path d="M92.5 91H22.5V71C30.7843 71 37.5 64.2843 37.5 56C37.5 47.7157 30.7843 41 22.5 41V21H92.5V91Z" />
	</mask>
	<path fill="#A8CD89"
		d="M92.5 91H22.5V71C30.7843 71 37.5 64.2843 37.5 56C37.5 47.7157 30.7843 41 22.5 41V21H92.5V91Z" />
	<path fill="#E6FFF2" mask="url(#path-2-outside-1_914_90)"
		d="M92.5 91V93H94.5V91H92.5ZM22.5 91H20.5V93H22.5V91ZM22.5 71V69H20.5V71H22.5ZM22.5 41H20.5V43H22.5V41ZM22.5 21V19H20.5V21H22.5ZM92.5 21H94.5V19H92.5V21ZM92.5 91V89H22.5V91V93H92.5V91ZM22.5 91H24.5V71H22.5H20.5V91H22.5ZM22.5 71V73C31.8888 73 39.5 65.3888 39.5 56H37.5H35.5C35.5 63.1797 29.6797 69 22.5 69V71ZM37.5 56H39.5C39.5 46.6112 31.8888 39 22.5 39V41V43C29.6797 43 35.5 48.8203 35.5 56H37.5ZM22.5 41H24.5V21H22.5H20.5V41H22.5ZM22.5 21V23H92.5V21V19H22.5V21ZM92.5 21H90.5V91H92.5H94.5V21H92.5Z" />
	<rect fill="#103228" x="60.5" y="69" width="29" height="15" />
	<path fill="#103228"
		d="M62.3473 38.512V44.848H55.5793V64H47.5873V44.848H40.8913V38.512H62.3473ZM75.1348 38.512C77.7988 38.512 80.1268 39.052 82.1188 40.132C84.1348 41.212 85.6828 42.712 86.7628 44.632C87.8428 46.552 88.3828 48.736 88.3828 51.184C88.3828 53.608 87.8428 55.792 86.7628 57.736C85.6828 59.68 84.1348 61.216 82.1188 62.344C80.1268 63.448 77.7988 64 75.1348 64H64.5148V38.512H75.1348ZM74.4148 56.872C76.2148 56.872 77.6428 56.38 78.6988 55.396C79.7548 54.412 80.2828 53.008 80.2828 51.184C80.2828 49.36 79.7548 47.956 78.6988 46.972C77.6428 45.988 76.2148 45.496 74.4148 45.496H72.5068V56.872H74.4148Z" />
	<path fill="#153448"
		d="M125.944 49V21.736H115.192V15.4H144.472V21.736H133.72V49H125.944ZM147.565 49V23.176H154.717V30.472L153.709 28.36C154.477 26.536 155.709 25.16 157.405 24.232C159.101 23.272 161.165 22.792 163.597 22.792V29.704C163.277 29.672 162.989 29.656 162.733 29.656C162.477 29.624 162.205 29.608 161.917 29.608C159.869 29.608 158.205 30.2 156.925 31.384C155.677 32.536 155.053 34.344 155.053 36.808V49H147.565ZM182.202 49V43.96L181.722 42.856V33.832C181.722 32.232 181.226 30.984 180.234 30.088C179.274 29.192 177.786 28.744 175.77 28.744C174.394 28.744 173.034 28.968 171.69 29.416C170.378 29.832 169.258 30.408 168.33 31.144L165.642 25.912C167.05 24.92 168.746 24.152 170.73 23.608C172.714 23.064 174.73 22.792 176.778 22.792C180.714 22.792 183.77 23.72 185.946 25.576C188.122 27.432 189.21 30.328 189.21 34.264V49H182.202ZM174.33 49.384C172.314 49.384 170.586 49.048 169.146 48.376C167.706 47.672 166.602 46.728 165.834 45.544C165.066 44.36 164.682 43.032 164.682 41.56C164.682 40.024 165.05 38.68 165.786 37.528C166.554 36.376 167.754 35.48 169.386 34.84C171.018 34.168 173.146 33.832 175.77 33.832H182.634V38.2H176.586C174.826 38.2 173.61 38.488 172.938 39.064C172.298 39.64 171.978 40.36 171.978 41.224C171.978 42.184 172.346 42.952 173.082 43.528C173.85 44.072 174.89 44.344 176.202 44.344C177.45 44.344 178.57 44.056 179.562 43.48C180.554 42.872 181.274 41.992 181.722 40.84L182.874 44.296C182.33 45.96 181.338 47.224 179.898 48.088C178.458 48.952 176.602 49.384 174.33 49.384ZM207.263 49.384C204.831 49.384 202.639 48.84 200.687 47.752C198.735 46.632 197.183 45.08 196.031 43.096C194.911 41.112 194.351 38.776 194.351 36.088C194.351 33.368 194.911 31.016 196.031 29.032C197.183 27.048 198.735 25.512 200.687 24.424C202.639 23.336 204.831 22.792 207.263 22.792C209.439 22.792 211.343 23.272 212.975 24.232C214.607 25.192 215.871 26.648 216.767 28.6C217.663 30.552 218.111 33.048 218.111 36.088C218.111 39.096 217.679 41.592 216.815 43.576C215.951 45.528 214.703 46.984 213.071 47.944C211.471 48.904 209.535 49.384 207.263 49.384ZM208.559 43.24C209.775 43.24 210.879 42.952 211.871 42.376C212.863 41.8 213.647 40.984 214.223 39.928C214.831 38.84 215.135 37.56 215.135 36.088C215.135 34.584 214.831 33.304 214.223 32.248C213.647 31.192 212.863 30.376 211.871 29.8C210.879 29.224 209.775 28.936 208.559 28.936C207.311 28.936 206.191 29.224 205.199 29.8C204.207 30.376 203.407 31.192 202.799 32.248C202.223 33.304 201.935 34.584 201.935 36.088C201.935 37.56 202.223 38.84 202.799 39.928C203.407 40.984 204.207 41.8 205.199 42.376C206.191 42.952 207.311 43.24 208.559 43.24ZM215.327 49V43.72L215.471 36.04L214.991 28.408V13.384H222.479V49H215.327ZM245.249 49V43.96L244.769 42.856V33.832C244.769 32.232 244.273 30.984 243.281 30.088C242.321 29.192 240.833 28.744 238.817 28.744C237.441 28.744 236.081 28.968 234.737 29.416C233.425 29.832 232.305 30.408 231.377 31.144L228.689 25.912C230.097 24.92 231.793 24.152 233.777 23.608C235.761 23.064 237.777 22.792 239.825 22.792C243.761 22.792 246.817 23.72 248.993 25.576C251.169 27.432 252.257 30.328 252.257 34.264V49H245.249ZM237.377 49.384C235.361 49.384 233.633 49.048 232.193 48.376C230.753 47.672 229.649 46.728 228.881 45.544C228.113 44.36 227.729 43.032 227.729 41.56C227.729 40.024 228.097 38.68 228.833 37.528C229.601 36.376 230.801 35.48 232.433 34.84C234.065 34.168 236.193 33.832 238.817 33.832H245.681V38.2H239.633C237.873 38.2 236.657 38.488 235.985 39.064C235.345 39.64 235.025 40.36 235.025 41.224C235.025 42.184 235.393 42.952 236.129 43.528C236.897 44.072 237.937 44.344 239.249 44.344C240.497 44.344 241.617 44.056 242.609 43.48C243.601 42.872 244.321 41.992 244.769 40.84L245.921 44.296C245.377 45.96 244.385 47.224 242.945 48.088C241.505 48.952 239.649 49.384 237.377 49.384ZM271.51 49.384C268.758 49.384 266.31 48.808 264.166 47.656C262.054 46.504 260.374 44.936 259.126 42.952C257.91 40.936 257.302 38.648 257.302 36.088C257.302 33.496 257.91 31.208 259.126 29.224C260.374 27.208 262.054 25.64 264.166 24.52C266.31 23.368 268.758 22.792 271.51 22.792C274.23 22.792 276.662 23.368 278.806 24.52C280.95 25.64 282.63 27.192 283.846 29.176C285.062 31.16 285.67 33.464 285.67 36.088C285.67 38.648 285.062 40.936 283.846 42.952C282.63 44.936 280.95 46.504 278.806 47.656C276.662 48.808 274.23 49.384 271.51 49.384ZM271.51 43.24C272.758 43.24 273.878 42.952 274.87 42.376C275.862 41.8 276.646 40.984 277.222 39.928C277.798 38.84 278.086 37.56 278.086 36.088C278.086 34.584 277.798 33.304 277.222 32.248C276.646 31.192 275.862 30.376 274.87 29.8C273.878 29.224 272.758 28.936 271.51 28.936C270.262 28.936 269.142 29.224 268.15 29.8C267.158 30.376 266.358 31.192 265.75 32.248C265.174 33.304 264.886 34.584 264.886 36.088C264.886 37.56 265.174 38.84 265.75 39.928C266.358 40.984 267.158 41.8 268.15 42.376C269.142 42.952 270.262 43.24 271.51 43.24ZM126.136 76.936H142.312V82.984H126.136V76.936ZM126.712 90.76H145V97H118.984V63.4H144.376V69.64H126.712V90.76ZM151.187 97V63.4H157.619L171.923 87.112H168.515L182.579 63.4H188.963L189.059 97H181.763L181.715 74.584H183.059L171.827 93.448H168.323L156.851 74.584H158.483V97H151.187ZM197.031 97V63.4H211.575C214.583 63.4 217.175 63.896 219.351 64.888C221.527 65.848 223.207 67.24 224.391 69.064C225.575 70.888 226.167 73.064 226.167 75.592C226.167 78.088 225.575 80.248 224.391 82.072C223.207 83.896 221.527 85.304 219.351 86.296C217.175 87.256 214.583 87.736 211.575 87.736H201.351L204.807 84.232V97H197.031ZM204.807 85.096L201.351 81.4H211.143C213.543 81.4 215.335 80.888 216.519 79.864C217.703 78.84 218.295 77.416 218.295 75.592C218.295 73.736 217.703 72.296 216.519 71.272C215.335 70.248 213.543 69.736 211.143 69.736H201.351L204.807 66.04V85.096Z" />
</svg>
